<svg width="65" height="37" viewBox="0 0 65 37" fill="none" xmlns="http://www.w3.org/2000/svg">
<path fill-rule="evenodd" clip-rule="evenodd" d="M0 0V30.7921H5.70775L4.61101 36.7746L15.6748 30.7921H27.8168H27.9424H64.9999L64.869 0H38.866H38.2154H0Z" fill="#151515"/>
<path fill-rule="evenodd" clip-rule="evenodd" d="M14.2233 11.6792H12.6673V14.5183H14.0525C14.993 14.5183 16.1728 14.2778 16.1728 13.0388C16.1728 11.9026 15.0952 11.6792 14.2233 11.6792ZM16.2916 21.4878L13.6759 16.6521H12.6853V21.4878H9.81226V9.30446H14.4286C16.7534 9.30446 19.0611 10.1992 19.0611 12.9873C19.0611 14.6216 18.1036 15.7916 16.548 16.274L19.7115 21.4878H16.2916Z" fill="white"/>
<path fill-rule="evenodd" clip-rule="evenodd" d="M36.425 21.4878L36.4936 12.8668H36.443L33.297 21.4878H31.2452L28.1848 12.8668H28.1337L28.2028 21.4878H25.4495V9.30482H29.6041L32.3569 17.1168H32.4246L35.0578 9.30482H39.2801V21.4878H36.425Z" fill="white"/>
<path fill-rule="evenodd" clip-rule="evenodd" d="M51.1542 12.0002H50V15.0002H51.1082C52.0926 15.0002 53 14.6587 53 13.4552C53 12.2333 52.0926 12.0002 51.1542 12.0002ZM51.2906 16.4746H49.8654V21.0002H47V9.00018H51.3578C53.9556 9.00018 56 9.94948 56 12.6952C56 15.4746 53.771 16.4746 51.2906 16.4746Z" fill="white"/>
</svg>
